<svg width="112" height="111" viewBox="0 0 112 111" fill="none" xmlns="http://www.w3.org/2000/svg">
<path d="M55.5105 111C86.1681 111 111.021 86.1518 111.021 55.5C111.021 24.8482 86.1681 0 55.5105 0C24.8529 0 0 24.8482 0 55.5C0 86.1518 24.8529 111 55.5105 111Z" fill="white"/>
<path d="M92.0384 36.7265C61.9324 33.4878 12.2669 42.6039 54.4547 104.977C47.9178 87.1943 46.284 48.648 92.0384 36.7265Z" fill="#F1E468"/>
<path d="M50.6362 27.8418L55.2655 42.7653L65.2164 27.8418H73.3934L67.8988 58.9865H60.0679L63.183 41.4243L56.5202 51.8924H50.8525L47.9105 41.4243L44.7955 58.9865H37.0078L42.5024 27.8418H50.6362Z" fill="black"/>
<path d="M33.7465 65.2783C35.2411 65.2783 36.3031 65.6063 36.9324 66.2614C37.4044 66.7593 37.6403 67.3884 37.6403 68.149C37.6403 68.4109 37.6144 68.6861 37.5617 68.9748L37.3847 69.9186C37.2407 70.6657 36.9583 71.2493 36.5391 71.6685C36.1324 72.0877 35.7721 72.2977 35.4574 72.2977L35.4378 72.455C35.8051 72.455 36.1788 72.6579 36.5587 73.0645C36.9387 73.4711 37.129 73.9493 37.129 74.4998C37.129 74.7224 37.1031 74.9583 37.0504 75.2077L36.9324 75.8172C36.7223 76.9442 36.2181 77.829 35.4181 78.4716C34.6315 79.1141 33.5302 79.435 32.1143 79.435H25.5459L28.0434 65.2783H33.7465ZM31.9766 73.6544H30.1083L29.6364 76.3677H31.5046C31.5306 76.3677 31.5573 76.3677 31.5833 76.3677C32.1866 76.3677 32.6649 76.2301 33.0189 75.9548C33.3729 75.6662 33.5499 75.3193 33.5499 74.9127C33.5499 74.0735 33.0252 73.6544 31.9766 73.6544ZM32.5076 68.3456H31.0326L30.5213 71.2752H31.9766C33.2352 71.2752 33.8645 70.7247 33.8645 69.6236C33.8645 69.2438 33.7465 68.9355 33.5105 68.6995C33.2879 68.4636 32.9536 68.3456 32.5076 68.3456ZM46.6716 65.2783C48.1662 65.2783 49.2282 65.6063 49.8575 66.2614C50.3295 66.7593 50.5655 67.3884 50.5655 68.149C50.5655 68.4109 50.5387 68.6861 50.4868 68.9748L50.2115 70.5084C50.0542 71.3602 49.7788 72.0484 49.3855 72.5729C49.0048 73.0975 48.5792 73.4711 48.1073 73.6937L49.8968 79.435H45.9244L44.2724 74.1459H43.0531L42.2468 79.435H38.471L40.9686 65.2783H46.6716ZM45.4327 68.3456H43.9578L43.4465 71.7668H44.8231C45.5177 71.7668 46.0156 71.6032 46.3177 71.2752C46.619 70.9347 46.77 70.4888 46.77 69.9382C46.77 68.8765 46.324 68.3456 45.4327 68.3456ZM61.2487 79.435H51.3765L53.874 65.2783H63.7463L63.1956 68.3456H56.8632L56.4109 71H61.642L61.0914 74.0673H55.8603L55.467 76.3677H61.7994L61.2487 79.435ZM76.3559 65.2783L76.0216 75.9941H76.474L79.8958 65.2783H83.7503L78.8928 79.435H72.9931L73.5241 70.3708L70.8889 79.435H64.9891L65.1268 65.2783H68.9813L68.6273 75.9941H69.0796L72.5211 65.2783H76.3559Z" fill="black"/>
</svg>
